<svg width="52" height="52" viewBox="0 0 52 52" fill="none" xmlns="http://www.w3.org/2000/svg">
<path fill-rule="evenodd" clip-rule="evenodd" d="M26 52C40.3594 52 52 40.3594 52 26C52 11.6406 40.3594 0 26 0C11.6406 0 0 11.6406 0 26C0 40.3594 11.6406 52 26 52ZM17.26 11.4194C16.1117 10.2251 14.2125 10.1879 13.0182 11.3363C11.8239 12.4846 11.7867 14.3838 12.935 15.5781L22.6301 25.6609L12.4047 35.8863C11.2332 37.0578 11.2332 38.9573 12.4047 40.1289C13.5763 41.3005 15.4758 41.3005 16.6474 40.1289L26.7895 29.9868L35.9517 39.5154C37.1001 40.7098 38.9992 40.747 40.1936 39.5986C41.3879 38.4502 41.4251 36.5511 40.2767 35.3568L31.033 25.7433L40.1289 16.6474C41.3005 15.4758 41.3005 13.5763 40.1289 12.4047C38.9573 11.2332 37.0578 11.2332 35.8863 12.4047L26.8735 21.4175L17.26 11.4194Z" fill="#C4C4C4"/>
</svg>
