<svg width="48" height="65" viewBox="0 0 48 65" fill="none" xmlns="http://www.w3.org/2000/svg">
    <path fill-rule="evenodd" clip-rule="evenodd" d="M19.4991 26.1355C13.5827 25.8112 10.2968 25.8962 4.51127 26.6948C3.86648 20.0904 4.71551 16.8122 8.12774 11.6324C6.3847 16.1518 6.04741 20.5145 6.97196 24.2341C11.984 24.2043 14.6899 24.4285 19.4991 24.8679L19.7228 24.2341C15.9415 22.1928 13.8471 21.0835 11.7069 20.6549C10.9116 11.4383 11.6231 6.78224 16.591 0.11185C13.625 8.11066 13.1622 12.2555 14.3168 19.089L20.5058 23.4139L20.9904 22.8546L19.35 21.1023C20.212 19.7782 20.8754 19.3188 22.2208 18.7535C21.7495 19.2787 21.5592 19.7104 21.326 20.8786C21.6228 21.5086 21.8285 21.6849 22.2208 21.8852H24.6815C25.2314 21.6941 25.4574 21.5132 25.7627 21.1023C26.034 20.6378 25.8603 20.1231 24.9797 18.7535C26.1233 19.2944 26.7575 19.6685 27.8133 21.1023L26.2101 22.8546L26.7321 23.4511L32.8838 19.1636C33.8731 12.1782 33.7743 8.08966 30.5722 0C36.489 8.84451 36.1605 12.9019 35.6233 19.5365C35.5928 19.913 35.5616 20.2978 35.5309 20.6922C33.6047 21.0599 31.7781 21.9083 27.4032 24.3832L27.7014 24.8679C32.2824 24.3075 35.0635 24.2073 40.2659 24.2714C41.2984 20.2425 40.6892 17.2575 39.1101 11.6324C42.6043 17.2954 43.39 20.5894 42.7266 26.6948C36.5048 25.7267 33.2976 25.7444 27.7014 26.0237L27.5523 26.5829C34.1607 27.2462 47.2378 30.6468 47.2378 30.6468C45.3639 46.8317 40.7845 52.496 33.8957 61.0167C33.058 62.0529 32.186 63.1314 31.2806 64.2762C31.7798 63.4772 32.2647 62.709 32.735 61.9638C38.288 53.1665 41.8149 47.5789 42.8011 32.3991C37.515 30.3381 33.959 29.2699 27.1049 27.4404L26.8812 27.8133C33.2636 30.8865 36.8052 32.5944 39.7066 34.226C39.2573 45.41 37.0087 49.8187 33.3271 57.0371C33.1217 57.44 32.9117 57.8516 32.6974 58.2736C32.8484 57.8474 32.9958 57.4352 33.1395 57.0335C35.2253 51.2003 36.5225 47.5726 36.8731 35.0462C33.327 32.6244 31.1448 31.3764 27.908 29.5254C27.4747 29.2776 27.0225 29.019 26.5456 28.7453L26.3965 29.0436L31.5043 32.7347C31.711 36.4915 31.758 38.3016 31.5043 40.0794C30.3024 42.7057 28.4961 44.381 23.7121 47.6479C20.4774 46.0523 18.7174 44.6921 15.8081 40.2659C15.4578 37.8211 15.3961 36.2752 15.6589 33.0329C17.5088 31.3041 18.6198 30.4386 20.7295 29.0809L20.5803 28.7826C16.3373 31.1072 14.1108 32.4601 10.3274 34.9344C10.3236 46.3003 11.7264 50.8313 14.8014 58.1618C14.6046 57.8294 14.4117 57.5056 14.2229 57.1885C10.7248 51.3146 8.59378 47.7363 7.49392 34.3005L20.2448 28.037L19.9838 27.4404C19.8778 27.4661 19.7726 27.4915 19.6681 27.5167C13.4111 29.0289 9.80673 29.8999 4.51127 32.4364C6.15869 49.9751 9.56483 55.3646 16.0318 64.2762C5.81574 53.8739 2.81196 47.611 0 30.6095L19.6483 26.6575L19.4991 26.1355ZM20.1702 30.3112C18.9281 31.3358 18.2536 31.9278 17.113 33.0329C17.056 35.0161 17.0992 36.2838 17.4485 39.1101C19.1109 41.9326 20.5817 43.2263 23.6748 45.2618C26.9653 42.938 28.5552 41.6142 29.6401 39.1101C30.0178 37.4964 30.1214 36.1877 30.0875 33.0329L27.1422 30.3112L29.1182 33.2193C29.2566 35.2548 29.2049 36.343 28.6708 38.1034C27.0353 40.6606 25.9107 41.6092 23.6748 42.7638C21.3561 41.6732 20.3077 40.6524 18.6789 38.439C18.2137 36.8764 18.1155 35.7243 18.0078 33.5549L20.1702 30.3112Z" fill="#ffffff"/>
</svg>